# xmcd CD database file
#
# Track frame offsets:
#	182
#	32220
#	49907
#	80962
#	104237
#	128707
#	142725
#	203325
#	231692
#	267210
#
# Disc length: 3681 seconds
#
# Revision: 0
# Processed by: cddbd v1.5.1PL2 Copyright (c) Steve Scherf et al.
# Submitted via: CDex 1.51
#
DISCID=930e5f0a
DTITLE=Miles Davis - Gold'n Jazz
DYEAR=1999
DGENRE=Jazz
TTITLE0=Round Midnight
TTITLE1=Tune Up
TTITLE2=Vierd Blues
TTITLE3=If I Could Write A Book
TTITLE4=It's Only A Paper Moon
TTITLE5=Smooch
TTITLE6=Walkin'
TTITLE7=Nature Boy
TTITLE8=Diane
TTITLE9=The Theme (Take1)
EXTD=YEAR: 1999
EXTT0=
EXTT1=
EXTT2=
EXTT3=
EXTT4=
EXTT5=
EXTT6=
EXTT7=
EXTT8=
EXTT9=
PLAYORDER=
